<?xml version="1.0" standalone="no"?>
<!DOCTYPE svg PUBLIC "-//W3C//DTD SVG 20010904//EN"
 "http://www.w3.org/TR/2001/REC-SVG-20010904/DTD/svg10.dtd">
<svg version="1.0" xmlns="http://www.w3.org/2000/svg"
 width="1024.000000pt" height="1024.000000pt" viewBox="0 0 1024.000000 1024.000000"
 preserveAspectRatio="xMidYMid meet">

<g transform="translate(0.000000,1024.000000) scale(0.100000,-0.100000)"
fill="#000000" stroke="none">
<path d="M0 5120 l0 -5120 5120 0 5120 0 0 5120 0 5120 -5120 0 -5120 0 0
-5120z m4235 4000 c49 -47 192 -112 605 -278 365 -146 456 -184 486 -202 31
-17 33 -17 75 2 24 11 150 60 279 110 353 134 468 186 545 248 41 33 44 33
130 12 71 -18 346 -34 515 -30 153 4 168 6 207 28 61 36 88 23 133 -62 19 -37
47 -89 61 -115 14 -26 40 -89 58 -138 17 -50 94 -207 170 -350 219 -413 230
-433 260 -440 42 -10 400 -155 466 -188 86 -43 384 -233 424 -271 58 -54 169
-230 176 -281 7 -42 10 -45 54 -61 160 -59 156 -56 154 -94 -5 -81 -2 -99 26
-166 16 -38 47 -112 69 -164 47 -110 74 -233 70 -311 -3 -49 -6 -55 -38 -75
-61 -39 -101 -76 -143 -133 -22 -31 -126 -146 -231 -255 -177 -185 -268 -264
-428 -374 -27 -18 -48 -41 -48 -50 0 -9 30 -66 66 -127 94 -158 303 -593 367
-762 22 -60 55 -120 91 -170 31 -43 81 -117 110 -164 l53 -86 -21 -29 c-84
-120 -183 -227 -240 -261 -33 -20 -62 -37 -64 -39 -5 -3 53 -116 88 -170 39
-62 38 -83 -6 -125 -20 -18 -63 -81 -97 -138 -38 -63 -74 -111 -92 -123 -44
-27 -165 -63 -290 -87 -72 -14 -120 -29 -144 -45 -20 -13 -72 -45 -116 -72
-105 -62 -398 -253 -830 -540 -427 -283 -558 -374 -610 -424 -22 -21 -56 -46
-75 -55 -59 -29 -423 -268 -755 -495 -115 -79 -273 -186 -350 -238 -136 -91
-140 -95 -147 -135 -10 -58 -45 -87 -104 -87 -37 0 -51 6 -75 29 -16 16 -29
37 -29 45 0 9 -26 33 -58 53 -31 20 -129 83 -217 138 -306 194 -731 467 -840
540 -60 40 -124 80 -141 89 -18 8 -45 27 -62 41 -16 13 -137 75 -268 136 -132
60 -338 159 -459 219 -121 60 -278 132 -349 160 -71 28 -143 58 -159 67 -26
13 -39 13 -87 3 -71 -15 -104 -2 -132 52 -18 34 -43 49 -286 174 -466 240
-544 276 -574 270 -16 -3 -41 -9 -57 -12 -40 -8 -98 13 -118 42 -14 22 -14 32
-3 78 10 41 10 105 1 307 -6 140 -16 304 -21 366 -18 199 -29 434 -31 623 l-2
185 -28 39 c-35 48 -36 70 -7 116 21 35 21 40 19 495 0 253 -4 516 -7 585 l-6
125 32 40 c94 118 240 442 265 587 5 32 15 44 67 80 34 22 145 104 246 180
101 76 197 145 212 153 25 13 28 20 32 81 5 84 29 109 93 100 l40 -6 74 147
c88 177 177 331 370 638 79 127 186 302 237 390 51 88 102 172 114 187 12 15
56 51 98 80 42 29 89 71 104 94 27 40 28 41 100 47 64 6 288 54 473 101 147
38 330 109 365 141 72 66 101 67 165 5z"/>
<path d="M3950 8934 c-113 -46 -360 -117 -485 -139 -176 -31 -173 -30 -186
-78 -6 -23 -33 -112 -60 -197 -26 -85 -56 -186 -65 -225 -9 -38 -43 -166 -75
-282 -33 -117 -59 -218 -59 -225 0 -15 113 107 227 247 49 61 137 162 194 225
57 63 129 144 159 180 30 36 102 119 160 186 87 100 168 194 278 327 20 23 12
21 -88 -19z"/>
<path d="M4270 8949 c0 -7 42 -55 93 -108 52 -53 138 -148 192 -211 155 -181
300 -330 321 -330 20 0 173 84 302 164 58 36 72 50 72 70 0 21 -7 27 -57 41
-32 9 -92 32 -133 52 -41 19 -147 63 -235 98 -253 100 -426 174 -481 206 -55
31 -74 36 -74 18z"/>
<path d="M4034 8767 c-61 -67 -165 -185 -230 -262 -65 -77 -172 -201 -239
-275 -66 -74 -163 -187 -215 -250 -51 -63 -127 -150 -168 -193 -40 -43 -72
-81 -69 -83 5 -6 203 52 382 111 302 101 1163 394 1203 410 42 17 53 37 28 52
-15 9 -118 124 -316 353 -195 227 -227 260 -247 260 -10 0 -65 -52 -129 -123z"/>
<path d="M6420 8884 c0 -5 102 -85 227 -179 125 -93 270 -203 323 -244 247
-193 540 -409 540 -399 0 6 -54 113 -119 237 -66 124 -145 283 -176 352 -40
89 -69 140 -99 171 l-42 44 -200 -4 c-178 -4 -355 6 -431 25 -13 3 -23 1 -23
-3z"/>
<path d="M6175 8831 c-22 -21 -475 -208 -657 -272 -54 -18 -98 -38 -98 -44 1
-19 109 -328 118 -337 6 -6 20 -7 33 -3 30 10 353 333 449 450 41 50 101 118
134 153 32 34 53 62 45 62 -8 0 -19 -4 -24 -9z"/>
<path d="M6289 8746 c-11 -19 -35 -46 -54 -60 -19 -15 -85 -84 -148 -154 -63
-70 -172 -188 -244 -263 -71 -74 -150 -162 -175 -195 l-46 -60 42 -113 c23
-62 45 -113 49 -113 18 -2 167 16 473 57 182 24 400 51 485 59 172 17 625 46
718 46 34 0 61 4 61 9 0 5 -17 20 -37 32 -48 28 -373 272 -473 354 -41 33
-127 99 -190 145 -63 46 -162 121 -220 165 -176 136 -207 148 -241 91z"/>
<path d="M3048 8597 c-65 -73 -95 -120 -215 -328 -49 -85 -148 -251 -219 -369
-72 -118 -172 -291 -223 -383 -51 -92 -109 -195 -130 -227 -47 -72 -56 -103
-39 -134 7 -14 56 -71 109 -128 53 -57 120 -131 150 -166 30 -34 59 -62 65
-62 11 0 117 257 234 565 58 156 60 161 49 210 -11 49 -10 53 29 130 43 84
124 352 168 549 13 61 33 147 43 191 21 87 42 207 37 212 -1 2 -28 -25 -58
-60z"/>
<path d="M5267 8380 c-21 -16 -88 -56 -150 -90 -62 -33 -123 -69 -137 -80
l-24 -18 37 -54 c34 -50 126 -139 242 -235 60 -49 325 -203 350 -203 11 0 4
36 -15 85 -11 27 -47 118 -79 200 -33 83 -72 179 -86 215 -15 36 -41 98 -57
138 -16 39 -33 72 -36 71 -4 0 -24 -13 -45 -29z"/>
<path d="M4643 8079 c-68 -21 -182 -61 -255 -88 -73 -27 -174 -61 -224 -75
-50 -14 -243 -77 -430 -140 -313 -106 -653 -216 -666 -216 -3 0 -35 -17 -69
-38 l-64 -39 -46 -139 c-25 -76 -85 -238 -134 -359 -52 -130 -88 -234 -88
-255 0 -65 38 -128 151 -248 396 -426 930 -980 958 -994 50 -27 104 -87 104
-117 1 -43 34 -104 101 -182 35 -40 87 -102 114 -136 145 -180 402 -483 414
-488 22 -9 53 17 366 300 159 143 336 303 394 355 59 52 138 127 178 166 39
39 99 93 132 119 68 53 78 67 27 37 -62 -37 -299 -120 -561 -197 -284 -84
-616 -181 -737 -216 -92 -27 -108 -20 -108 47 0 53 16 70 77 79 26 4 89 20
138 35 50 16 144 43 210 60 65 17 212 60 325 95 113 34 240 72 283 84 43 12
97 31 120 43 23 11 91 39 152 60 131 47 352 158 458 231 102 70 229 169 223
174 -2 2 -21 -4 -43 -15 -47 -23 -269 -94 -384 -122 -248 -60 -634 -98 -864
-84 -127 7 -357 40 -457 65 -256 64 -728 278 -865 392 -48 40 -111 73 -120 63
-25 -24 213 -256 363 -355 144 -95 440 -241 587 -291 165 -56 221 -62 497 -53
346 12 487 10 502 -4 14 -15 3 -31 -28 -38 -236 -59 -283 -66 -479 -74 -237
-9 -306 -3 -440 39 -348 112 -648 270 -873 463 -175 149 -201 186 -212 305 -4
41 -14 80 -21 87 -9 9 -58 15 -144 20 -127 6 -131 6 -178 -19 -26 -14 -52 -26
-57 -26 -5 0 -12 22 -16 50 -4 29 -14 56 -25 66 -25 22 -24 76 0 131 17 37 26
44 72 57 28 9 73 29 98 45 25 16 96 53 156 83 61 29 229 114 375 189 515 263
841 402 982 420 46 6 180 11 298 12 187 1 238 -2 394 -26 168 -25 592 -123
663 -152 l33 -14 -15 36 c-19 46 -30 58 -69 82 -82 51 -489 194 -641 226 -16
4 -97 29 -180 55 -82 27 -222 70 -310 95 -297 87 -434 134 -446 156 -15 28 10
64 55 79 30 10 43 7 117 -24 98 -40 348 -118 434 -136 33 -7 114 -25 180 -41
66 -15 121 -27 122 -25 2 2 -12 14 -31 27 -65 46 -181 144 -262 221 -71 68
-149 119 -179 117 -5 -1 -65 -19 -132 -40z"/>
<path d="M7475 7823 c-626 -23 -950 -51 -1370 -118 -82 -13 -189 -29 -237 -36
-127 -18 -122 -38 41 -158 204 -151 270 -228 287 -338 4 -24 10 -43 15 -43 11
0 96 50 168 99 72 49 123 75 229 116 104 39 262 115 262 125 0 8 -93 17 -346
30 -190 10 -269 21 -286 38 -17 17 -2 39 32 46 48 9 368 7 505 -4 66 -5 242
-9 390 -7 607 4 633 4 715 -20 41 -13 117 -33 169 -45 169 -41 109 -65 -84
-33 -156 25 -364 30 -500 10 -66 -9 -201 -20 -300 -24 -182 -9 -235 -19 -263
-54 -8 -9 -37 -30 -65 -48 -29 -18 -74 -47 -102 -64 -27 -18 -90 -50 -140 -72
-91 -40 -307 -191 -313 -219 -6 -24 22 -15 98 33 155 96 568 265 809 331 l136
37 285 0 c308 0 347 -4 595 -60 151 -34 386 -105 438 -132 l28 -14 -15 29
c-85 164 -361 340 -773 493 -109 40 -140 48 -175 43 -37 -5 -49 -2 -84 24 -49
36 -60 38 -149 35z"/>
<path d="M4705 7320 c-207 -13 -310 -53 -921 -356 -204 -101 -400 -201 -436
-221 -35 -21 -108 -54 -161 -73 -73 -26 -97 -39 -97 -53 0 -27 39 -36 188 -43
158 -8 127 -18 400 133 390 216 873 409 1137 454 145 25 512 -7 760 -66 209
-49 492 -158 600 -231 33 -22 83 -53 112 -69 64 -34 69 -33 278 60 290 129
511 206 727 252 162 34 428 43 628 19 329 -38 604 -126 912 -292 75 -41 139
-74 142 -74 4 0 -6 24 -20 53 -15 28 -34 75 -44 102 -13 39 -24 54 -51 67
-316 155 -553 233 -864 284 -128 20 -543 31 -640 15 -87 -13 -411 -111 -525
-158 -227 -94 -530 -258 -542 -294 -4 -11 -10 -11 -36 0 -45 19 -51 30 -77
132 -13 51 -29 95 -36 100 -7 4 -28 10 -48 14 -19 4 -78 24 -130 44 -236 93
-371 129 -671 177 -184 29 -374 37 -585 24z"/>
<path d="M4990 7051 c-54 -7 -54 -7 130 -52 152 -36 292 -87 381 -137 69 -38
249 -152 487 -306 75 -49 171 -110 212 -135 41 -26 88 -55 103 -66 l28 -18 -6
124 c-4 68 -12 135 -18 148 -17 34 -222 165 -363 232 -195 92 -329 131 -634
183 -166 28 -256 36 -320 27z"/>
<path d="M2137 6878 c-28 -718 -38 -1093 -27 -1081 20 21 130 254 238 509 116
270 121 283 120 348 l-1 68 -150 159 c-82 87 -155 159 -162 159 -9 0 -14 -44
-18 -162z"/>
<path d="M7560 7023 c-348 -34 -846 -189 -1050 -328 l-75 -51 4 -120 c2 -65 5
-121 7 -123 10 -10 145 74 418 259 102 69 309 189 369 213 34 14 123 48 197
77 74 28 149 58 165 65 30 14 28 15 -35 8z"/>
<path d="M4565 6966 c-296 -104 -323 -114 -406 -151 -163 -71 -639 -329 -639
-346 0 -4 9 -10 19 -14 19 -6 405 180 577 278 114 65 259 128 308 135 35 4
326 137 326 148 0 11 -49 -2 -185 -50z"/>
<path d="M7970 6996 c0 -7 4 -9 184 -77 147 -57 230 -100 478 -251 97 -59 212
-125 255 -147 43 -22 92 -49 108 -60 17 -12 41 -21 54 -21 20 0 22 3 16 27 -3
15 -16 47 -28 71 -19 38 -37 54 -132 111 -147 89 -242 140 -350 188 -120 54
-162 68 -345 113 -169 42 -240 55 -240 46z"/>
<path d="M1794 6848 c-124 -93 -225 -176 -236 -192 -4 -6 -14 -33 -22 -61 -9
-27 -41 -106 -72 -175 -31 -69 -65 -150 -75 -179 -11 -30 -26 -65 -34 -78 -15
-22 -15 -23 19 -23 18 0 52 -6 74 -14 36 -13 42 -13 56 2 8 10 59 110 114 223
55 113 116 232 137 264 39 61 165 297 165 308 0 16 -23 2 -126 -75z"/>
<path d="M7712 6920 c-73 -17 -180 -63 -224 -95 -139 -102 -217 -287 -190
-451 26 -154 112 -264 270 -344 76 -38 186 -50 273 -30 168 39 312 175 353
335 42 157 -6 314 -131 437 -36 35 -80 62 -168 103 -124 57 -128 58 -183 45z
m257 -220 c95 -48 127 -166 70 -258 -60 -100 -227 -96 -293 6 -32 49 -40 91
-27 140 30 109 150 163 250 112z"/>
<path d="M4832 6905 c-86 -20 -202 -83 -257 -139 -91 -92 -135 -202 -135 -336
0 -138 35 -224 133 -323 169 -171 399 -190 603 -49 128 89 189 213 189 387 0
94 -2 104 -36 175 -53 110 -114 180 -196 222 -117 62 -219 83 -301 63z m301
-213 c40 -23 64 -57 78 -112 16 -61 5 -113 -34 -157 -55 -63 -126 -79 -195
-44 -152 78 -148 282 6 332 37 12 109 3 145 -19z"/>
<path d="M1981 6804 c-14 -32 -37 -81 -52 -109 -121 -225 -159 -298 -216 -420
-35 -77 -80 -168 -99 -202 -19 -34 -34 -69 -34 -78 0 -9 35 -51 78 -94 147
-146 312 -301 320 -301 5 0 12 190 16 423 4 232 10 483 14 557 5 74 6 168 3
209 l-6 75 -24 -60z"/>
<path d="M5370 6805 c0 -2 20 -44 44 -92 62 -123 80 -191 80 -298 0 -156 -54
-280 -172 -392 l-65 -63 59 0 c136 0 535 86 722 156 119 44 242 105 242 119 0
5 -44 37 -97 70 -52 33 -148 93 -212 133 -64 41 -199 124 -301 185 -102 60
-211 127 -242 148 -32 21 -58 36 -58 34z"/>
<path d="M4389 6762 c-30 -23 -302 -178 -389 -222 -35 -18 -105 -48 -155 -67
-79 -31 -182 -78 -194 -89 -12 -11 206 -135 401 -228 151 -71 468 -180 468
-161 0 2 -24 27 -54 55 -135 128 -183 343 -120 542 15 46 37 107 50 135 12 29
22 53 20 53 -2 0 -14 -8 -27 -18z"/>
<path d="M8230 6776 c0 -4 15 -37 34 -74 49 -98 66 -164 66 -262 0 -142 -31
-228 -119 -336 -29 -34 -37 -50 -27 -52 19 -4 247 70 381 125 161 65 365 165
365 178 0 6 -33 30 -72 52 -126 69 -271 154 -328 192 -30 21 -100 64 -155 96
-55 32 -110 65 -122 73 -13 8 -23 11 -23 8z"/>
<path d="M7115 6682 c-83 -48 -251 -155 -375 -238 -339 -227 -307 -200 -312
-264 -2 -30 -6 -62 -9 -70 -12 -40 502 -124 834 -137 101 -4 157 -2 157 4 0 5
-15 21 -34 34 -85 60 -174 208 -197 327 -22 113 10 286 71 390 12 19 19 36 17
38 -1 2 -70 -36 -152 -84z"/>
<path d="M2561 6523 c-7 -16 -48 -113 -91 -218 -43 -104 -93 -221 -110 -260
-18 -38 -40 -88 -50 -110 -10 -22 -35 -76 -55 -120 -97 -212 -118 -276 -117
-350 1 -38 -4 -82 -9 -97 -12 -30 -4 -163 31 -528 19 -190 26 -275 55 -646 8
-99 18 -191 23 -204 9 -24 9 -23 33 12 35 52 255 330 325 412 60 71 104 96
104 60 0 -33 -71 -160 -133 -240 -34 -43 -98 -128 -142 -188 -44 -59 -93 -125
-109 -147 l-29 -38 17 -45 c16 -41 28 -51 179 -148 89 -58 185 -117 212 -133
28 -15 105 -62 172 -102 l122 -75 88 74 c119 98 254 229 276 267 18 30 18 31
0 38 -247 88 -324 142 -390 270 -51 100 -64 155 -65 274 0 207 104 385 276
470 75 36 188 68 245 69 38 0 289 -81 782 -251 117 -41 189 -61 189 -53 0 10
-84 117 -204 259 -70 83 -187 225 -262 317 -126 155 -138 168 -185 183 -49 16
-51 16 -72 -2 -47 -42 -299 -206 -452 -293 -88 -50 -194 -117 -235 -149 -75
-57 -142 -101 -154 -101 -13 0 -5 44 14 75 32 52 191 185 298 251 120 73 490
320 515 344 16 14 16 19 5 31 -8 8 -42 46 -78 84 -35 39 -201 215 -369 393
-329 348 -479 508 -552 590 -52 59 -79 66 -98 25z"/>
<path d="M8780 6135 c-58 -30 -145 -68 -195 -84 -49 -16 -149 -52 -222 -80
-142 -54 -199 -68 -423 -103 -130 -20 -182 -22 -505 -22 -320 -1 -379 2 -530
22 -145 20 -296 49 -470 92 -22 5 -55 10 -72 10 -31 0 -33 -2 -33 -34 0 -72
137 -207 305 -301 35 -20 135 -65 222 -100 87 -34 191 -77 232 -95 l74 -32 81
13 c64 10 113 28 231 85 83 39 209 97 280 128 72 32 274 129 450 216 230 114
343 165 403 180 46 12 86 19 89 17 3 -3 -12 -24 -34 -46 -48 -51 -256 -175
-483 -289 -165 -82 -222 -108 -500 -232 -63 -28 -119 -56 -125 -61 -19 -18
293 15 423 46 112 27 147 42 177 75 11 13 65 52 120 88 176 114 326 238 396
327 22 28 81 92 132 143 50 50 90 92 87 91 -3 0 -52 -24 -110 -54z"/>
<path d="M1286 6055 c-3 -9 -6 -255 -6 -545 l0 -529 73 52 c40 29 119 84 176
122 170 115 332 232 373 268 29 26 37 39 31 53 -10 24 -166 173 -298 286 -55
46 -125 113 -155 147 -30 34 -73 82 -95 106 -45 49 -88 67 -99 40z"/>
<path d="M6055 5766 c-72 -72 -207 -197 -300 -277 -94 -80 -176 -154 -184
-163 -13 -16 -11 -20 20 -44 19 -14 50 -44 69 -66 19 -23 83 -90 141 -151 58
-60 157 -168 219 -240 134 -153 557 -591 564 -584 5 4 -117 522 -202 859 -70
275 -121 502 -142 635 -25 155 -28 165 -43 164 -7 -1 -71 -61 -142 -133z"/>
<path d="M6394 5550 c6 -40 76 -336 140 -590 13 -52 38 -158 56 -235 53 -227
77 -323 118 -455 l37 -125 150 3 c83 1 224 9 315 17 91 8 221 19 290 25 127
10 418 40 433 43 5 2 -81 77 -190 167 -109 91 -256 217 -328 281 -147 131
-318 279 -545 472 -85 72 -204 179 -265 236 -60 58 -134 128 -164 156 l-53 50
6 -45z"/>
<path d="M6684 5457 c21 -17 120 -102 219 -187 99 -85 221 -189 270 -230 50
-41 179 -151 286 -245 422 -366 524 -450 594 -494 l38 -23 72 21 c116 36 277
95 277 103 0 4 -48 42 -106 85 -229 169 -837 625 -909 682 -74 58 -79 60 -121
54 -38 -5 -47 -2 -78 25 -19 16 -65 40 -103 52 -68 23 -307 116 -418 164 l-60
25 39 -32z"/>
<path d="M8186 5362 c6 -4 34 -72 63 -152 29 -80 77 -197 106 -260 29 -63 78
-180 109 -260 99 -252 104 -259 149 -198 20 27 20 29 3 85 -20 65 -194 442
-236 512 -15 25 -48 85 -74 133 -54 100 -91 148 -114 148 -10 0 -13 -3 -6 -8z"/>
<path d="M8090 5348 c-36 -5 -119 -18 -185 -28 -66 -11 -185 -25 -265 -31 -80
-7 -149 -15 -153 -19 -5 -4 9 -21 31 -36 175 -127 760 -573 810 -619 34 -31
62 -54 62 -50 0 15 -132 317 -193 442 -68 140 -114 302 -89 311 12 4 61 42 52
40 -3 0 -34 -5 -70 -10z"/>
<path d="M1851 5245 c-29 -25 -128 -95 -220 -157 -91 -61 -196 -133 -232 -159
-64 -47 -67 -51 -73 -101 -4 -28 -13 -63 -20 -77 -10 -21 -10 -85 0 -331 7
-168 18 -348 24 -400 7 -52 15 -196 19 -320 l7 -225 23 48 c12 26 49 139 82
250 33 111 81 270 106 352 86 287 111 371 147 490 82 279 186 616 196 634 12
23 13 41 3 41 -5 0 -32 -21 -62 -45z"/>
<path d="M5453 5231 c-21 -16 -81 -68 -134 -117 -52 -49 -214 -197 -359 -329
-146 -132 -283 -257 -305 -277 -64 -59 -62 -60 360 -148 328 -68 474 -94 723
-130 196 -28 614 -80 757 -95 l60 -6 -35 30 c-45 37 -229 226 -411 420 -79 85
-221 236 -314 335 -94 100 -188 204 -210 231 -22 28 -52 64 -66 82 l-27 32
-39 -28z"/>
<path d="M1990 5128 c-5 -13 -26 -81 -46 -153 -19 -71 -83 -285 -141 -475 -58
-190 -116 -379 -129 -420 -142 -470 -193 -644 -190 -648 2 -2 44 23 93 56 48
32 142 93 208 134 284 178 299 189 319 223 19 34 19 38 2 247 -9 117 -26 323
-36 458 -11 135 -27 307 -35 384 -8 76 -15 156 -15 177 0 43 -15 51 -30 17z"/>
<path d="M3330 4687 c-131 -25 -214 -86 -269 -198 -93 -191 -47 -431 102 -533
62 -42 223 -102 402 -150 186 -49 303 -83 355 -101 130 -46 616 -164 945 -229
201 -40 694 -121 795 -131 36 -4 155 -17 265 -31 501 -59 1022 -77 1510 -50
611 34 995 81 1054 129 8 7 34 44 59 82 24 39 60 87 80 107 l36 38 -21 22
c-11 13 -37 49 -57 80 -35 56 -36 56 -68 47 -148 -43 -670 -131 -943 -158
-325 -33 -969 -45 -1215 -23 -780 71 -1513 201 -2140 380 -277 79 -759 227
-805 246 -44 19 -95 65 -95 85 0 22 36 56 73 70 55 21 110 14 158 -21 24 -18
49 -40 56 -49 18 -24 89 -50 388 -138 756 -224 1508 -367 2245 -427 284 -23
347 -25 635 -20 445 8 684 26 1060 82 335 49 528 92 634 140 59 27 93 53 173
131 65 65 97 102 93 112 -12 30 -118 181 -127 181 -5 0 -40 -13 -78 -30 -38
-16 -71 -30 -74 -30 -4 0 -112 -40 -241 -90 -212 -80 -247 -91 -353 -104 -201
-26 -663 -67 -967 -87 -93 -6 -177 -12 -185 -13 -8 0 -29 -16 -47 -34 -39 -39
-60 -40 -106 -4 -32 26 -49 30 -154 41 -110 11 -279 32 -678 82 -291 36 -836
139 -1155 219 -41 10 -102 22 -135 25 -33 4 -69 13 -81 20 -11 7 -65 27 -120
44 -116 37 -399 132 -669 224 -218 75 -246 80 -335 64z"/>
<path d="M1960 3598 c-85 -60 -175 -120 -200 -133 -25 -12 -86 -50 -137 -83
-51 -34 -106 -68 -122 -77 -17 -8 -31 -22 -31 -30 0 -23 77 -69 298 -181 114
-57 272 -139 352 -182 124 -67 145 -76 148 -60 4 20 -36 298 -73 513 -13 77
-29 177 -36 223 -19 139 -17 138 -199 10z"/>
<path d="M3560 3671 c0 -9 13 -26 150 -202 52 -67 122 -156 155 -199 33 -43
130 -162 215 -266 159 -194 207 -252 313 -385 34 -41 71 -83 84 -92 22 -17 24
-16 75 19 29 21 109 80 177 133 361 280 424 328 516 397 55 41 128 96 162 122
l62 47 -102 16 c-56 9 -151 24 -212 34 -394 60 -1060 221 -1495 361 -81 26
-100 29 -100 15z"/>
<path d="M2276 3662 c-6 -10 18 -198 44 -347 11 -60 33 -188 49 -284 16 -95
33 -177 38 -181 17 -17 483 402 483 434 0 6 -17 19 -38 29 -52 26 -333 201
-492 307 -77 51 -78 51 -84 42z"/>
<path d="M3355 3532 c-44 -42 -121 -113 -170 -158 l-89 -80 325 -196 c178
-107 365 -220 414 -250 76 -46 401 -241 428 -256 20 -10 -16 39 -100 138 -48
58 -112 137 -142 175 -30 39 -107 133 -171 210 -63 77 -146 181 -184 230 -105
139 -210 265 -221 265 -5 0 -46 -35 -90 -78z"/>
<path d="M5615 3208 c-55 -32 -560 -413 -735 -553 -69 -56 -153 -120 -187
-143 -34 -23 -68 -51 -75 -61 -18 -26 -8 -160 16 -195 23 -36 75 -35 146 4 30
17 142 69 250 117 107 47 261 116 341 154 80 37 185 84 232 104 69 28 611 281
882 410 28 13 66 38 85 54 l35 30 -70 1 c-102 0 -390 27 -620 56 -279 36 -278
36 -300 22z"/>
<path d="M2950 3173 c-25 -21 -115 -105 -201 -189 -86 -83 -180 -166 -208
-184 -28 -18 -51 -39 -51 -45 0 -15 349 -133 530 -179 74 -19 196 -46 270 -61
74 -15 189 -40 255 -56 66 -15 211 -46 322 -69 111 -22 220 -47 242 -55 28 -9
50 -11 68 -5 16 5 65 16 111 26 48 10 82 22 82 29 0 7 -82 62 -182 122 -101
61 -246 149 -323 195 -77 47 -241 145 -365 218 -124 73 -282 168 -352 212 -70
43 -133 78 -140 78 -7 0 -33 -17 -58 -37z"/>
<path d="M7805 3154 c-33 -8 -63 -21 -67 -28 -5 -8 -38 -31 -76 -52 -37 -21
-89 -52 -117 -69 -27 -18 -84 -52 -125 -77 -166 -99 -462 -286 -619 -390 -91
-61 -230 -154 -309 -206 -78 -52 -141 -96 -140 -97 2 -1 40 2 85 6 l82 8 193
132 c187 128 773 512 932 612 60 37 197 138 235 173 7 6 -9 3 -74 -12z"/>
<path d="M7485 3139 c-47 -15 -436 -31 -586 -24 l-136 6 -28 -38 c-16 -21 -48
-60 -73 -88 -45 -51 -210 -271 -387 -514 -55 -76 -117 -160 -137 -187 -20 -27
-35 -50 -33 -52 9 -9 203 101 330 187 458 309 608 408 713 471 188 112 298
183 339 217 42 35 42 36 -2 22z"/>
<path d="M6414 2911 c-32 -31 -472 -247 -758 -372 -89 -39 -228 -104 -311
-144 -156 -75 -242 -115 -249 -115 -2 0 -50 -22 -107 -50 l-104 -50 517 0 516
0 56 78 c213 293 308 427 351 497 27 44 62 97 78 118 27 34 34 59 11 38z"/>
<path d="M3225 2422 c6 -5 35 -19 65 -32 30 -12 99 -44 152 -71 138 -69 290
-129 328 -129 18 0 49 -5 69 -11 32 -9 46 -7 119 23 45 18 84 38 85 43 1 6
-14 11 -33 13 -154 11 -458 74 -660 136 -100 31 -137 40 -125 28z"/>
<path d="M4340 2308 c-70 -41 -110 -71 -105 -78 2 -4 62 -13 132 -19 71 -7
136 -15 146 -17 22 -7 23 23 2 53 -12 17 -75 54 -135 79 -3 1 -21 -7 -40 -18z"/>
<path d="M3986 2071 c-27 -3 -51 -11 -53 -18 -3 -7 15 -22 39 -34 24 -12 104
-61 178 -109 432 -280 704 -453 805 -512 102 -61 119 -68 167 -68 51 0 59 4
198 99 80 55 317 216 527 357 211 141 388 263 394 270 16 19 -28 18 -156 -2
-55 -9 -116 -16 -135 -15 -19 1 -297 4 -617 7 -426 3 -583 1 -583 -7 0 -6 7
-35 16 -65 40 -139 -17 -149 -86 -14 -45 87 -77 100 -258 106 -307 9 -388 10
-436 5z"/>
</g>
</svg>
